<svg xmlns="http://www.w3.org/2000/svg" xmlns:xlink="http://www.w3.org/1999/xlink" width="500" zoomAndPan="magnify" viewBox="0 0 375 374.999991" height="500" preserveAspectRatio="xMidYMid meet" version="1.0"><defs><g/></defs><g fill="#2b2b2b" fill-opacity="1"><g transform="translate(114.733276, 223.011973)"><g><path d="M 126.53125 4.140625 C 100.632812 4.140625 79.765625 1.359375 63.921875 -4.203125 C 48.085938 -9.765625 36.03125 -17.414062 27.75 -27.15625 C 19.476562 -36.90625 13.921875 -48.140625 11.078125 -60.859375 L 96.359375 -60.859375 C 102.679688 -51.785156 112.738281 -47.25 126.53125 -47.25 C 140.320312 -47.25 150.375 -51.785156 156.6875 -60.859375 C 157.226562 -61.753906 157.5 -62.554688 157.5 -63.265625 C 157.5 -65.671875 154.316406 -67.472656 147.953125 -68.671875 C 141.585938 -69.867188 132.085938 -70.78125 119.453125 -71.40625 C 103.523438 -72.113281 86.796875 -73.804688 69.265625 -76.484375 C 30.203125 -82.523438 10.671875 -98.226562 10.671875 -123.59375 C 10.671875 -125.726562 10.804688 -128 11.078125 -130.40625 C 13.921875 -143.125 19.476562 -154.351562 27.75 -164.09375 C 36.03125 -173.84375 48.085938 -181.492188 63.921875 -187.046875 C 79.765625 -192.609375 100.632812 -195.390625 126.53125 -195.390625 C 152.425781 -195.390625 173.289062 -192.609375 189.125 -187.046875 C 204.957031 -181.492188 217.007812 -173.84375 225.28125 -164.09375 C 233.5625 -154.351562 239.128906 -143.125 241.984375 -130.40625 L 156.6875 -130.40625 C 150.375 -139.476562 140.320312 -144.015625 126.53125 -144.015625 C 112.738281 -144.015625 102.679688 -139.476562 96.359375 -130.40625 C 95.921875 -129.6875 95.703125 -129.015625 95.703125 -128.390625 C 95.703125 -126.253906 98.75 -124.675781 104.84375 -123.65625 C 110.9375 -122.632812 119.921875 -121.765625 131.796875 -121.046875 C 143.679688 -120.335938 156.335938 -119.179688 169.765625 -117.578125 C 183.203125 -115.984375 195.769531 -113.207031 207.46875 -109.25 C 219.175781 -105.289062 228.320312 -99.4375 234.90625 -91.6875 C 240.0625 -85.726562 242.640625 -78.164062 242.640625 -69 C 242.640625 -66.414062 242.421875 -63.703125 241.984375 -60.859375 C 239.128906 -48.140625 233.5625 -36.90625 225.28125 -27.15625 C 217.007812 -17.414062 204.957031 -9.765625 189.125 -4.203125 C 173.289062 1.359375 152.425781 4.140625 126.53125 4.140625 Z M 126.53125 4.140625 "/></g></g></g><g fill="#2b2b2b" fill-opacity="1"><g transform="translate(2.159776, 340.551861)"><g><path d="M 126.84375 4.140625 C 100.882812 4.140625 79.96875 1.351562 64.09375 -4.21875 C 48.21875 -9.789062 36.128906 -17.457031 27.828125 -27.21875 C 19.535156 -36.988281 13.960938 -48.253906 11.109375 -61.015625 L 96.609375 -61.015625 C 102.941406 -51.910156 113.019531 -47.359375 126.84375 -47.359375 C 140.675781 -47.359375 150.757812 -51.910156 157.09375 -61.015625 C 157.625 -61.910156 157.890625 -62.710938 157.890625 -63.421875 C 157.890625 -65.828125 154.695312 -67.632812 148.3125 -68.84375 C 141.9375 -70.050781 132.414062 -70.960938 119.75 -71.578125 C 103.78125 -72.296875 87.007812 -73.992188 69.4375 -76.671875 C 30.28125 -82.734375 10.703125 -98.476562 10.703125 -123.90625 C 10.703125 -126.039062 10.835938 -128.316406 11.109375 -130.734375 C 13.960938 -143.484375 19.535156 -154.738281 27.828125 -164.5 C 36.128906 -174.269531 48.21875 -181.941406 64.09375 -187.515625 C 79.96875 -193.097656 100.882812 -195.890625 126.84375 -195.890625 C 152.800781 -195.890625 173.71875 -193.097656 189.59375 -187.515625 C 205.476562 -181.941406 217.566406 -174.269531 225.859375 -164.5 C 234.160156 -154.738281 239.738281 -143.484375 242.59375 -130.734375 L 157.09375 -130.734375 C 150.757812 -139.828125 140.675781 -144.375 126.84375 -144.375 C 113.019531 -144.375 102.941406 -139.828125 96.609375 -130.734375 C 96.160156 -130.015625 95.9375 -129.34375 95.9375 -128.71875 C 95.9375 -126.582031 98.988281 -125 105.09375 -123.96875 C 111.207031 -122.945312 120.21875 -122.078125 132.125 -121.359375 C 144.039062 -120.648438 156.734375 -119.488281 170.203125 -117.875 C 183.671875 -116.269531 196.269531 -113.484375 208 -109.515625 C 219.726562 -105.546875 228.894531 -99.679688 235.5 -91.921875 C 240.664062 -85.941406 243.25 -78.359375 243.25 -69.171875 C 243.25 -66.585938 243.03125 -63.867188 242.59375 -61.015625 C 239.738281 -48.253906 234.160156 -36.988281 225.859375 -27.21875 C 217.566406 -17.457031 205.476562 -9.789062 189.59375 -4.21875 C 173.71875 1.351562 152.800781 4.140625 126.84375 4.140625 Z M 126.84375 4.140625 "/></g></g></g></svg>